<svg width="133" height="110" viewBox="0 0 133 110" fill="none" xmlns="http://www.w3.org/2000/svg">
<path d="M77.2256 83.3032H77.1365C77.0951 83.2894 77.0261 83.2784 76.9294 83.2701C76.8369 83.2618 76.7589 83.2577 76.6954 83.2577C76.5532 83.2577 76.4289 83.2673 76.3226 83.2867C76.2122 83.3046 76.0948 83.3356 75.9705 83.3798V85.4582H74.9723V82.3531H75.9664V82.8085C76.1873 82.6208 76.3792 82.4966 76.5422 82.4359C76.7037 82.3724 76.8528 82.3406 76.9895 82.3406H77.1096L77.2256 82.351V83.3032ZM74.2681 84.0898H71.99C72.0038 84.3341 72.0956 84.5204 72.2654 84.6488C72.4366 84.7785 72.6886 84.8433 73.0214 84.8433C73.2312 84.8433 73.4349 84.8054 73.6323 84.7295C73.8298 84.655 73.9858 84.5749 74.1004 84.4894H74.2081V85.2884C73.983 85.3781 73.7711 85.4437 73.5723 85.4851C73.3734 85.5265 73.1525 85.5472 72.9095 85.5472C72.2882 85.5472 71.8105 85.4064 71.4763 85.1249C71.145 84.8461 70.9793 84.4473 70.9793 83.9284C70.9793 83.4178 71.136 83.012 71.4494 82.7112C71.767 82.4117 72.1985 82.262 72.7438 82.262C73.2506 82.262 73.6302 82.3896 73.8829 82.6449C74.1383 82.9002 74.2661 83.2673 74.2661 83.7462L74.2681 84.0898ZM73.2782 83.5102C73.2726 83.3005 73.2209 83.1418 73.1228 83.0341C73.0262 82.9306 72.8743 82.8789 72.6672 82.8789C72.4739 82.8789 72.3151 82.9285 72.1909 83.0279C72.0694 83.1273 72.0003 83.286 71.9838 83.504L73.2782 83.5102ZM70.2669 85.4602H69.2727V85.1373C69.1002 85.2753 68.9393 85.3788 68.7902 85.4478C68.6383 85.5127 68.4657 85.5451 68.2724 85.5451C67.8941 85.5451 67.5904 85.4002 67.3612 85.1104C67.1361 84.8178 67.0236 84.4245 67.0236 83.9304C67.0236 83.6682 67.0615 83.435 67.1375 83.2308C67.2148 83.0265 67.3197 82.8513 67.4523 82.705C67.5765 82.567 67.7284 82.46 67.9079 82.3841C68.0874 82.3068 68.2669 82.2682 68.4464 82.2682C68.6314 82.2682 68.7833 82.2889 68.902 82.3303C69.0208 82.3676 69.143 82.4159 69.2686 82.4752V81.1566H70.2627L70.2669 85.4602ZM69.2727 84.6032V83.0776C69.201 83.05 69.1264 83.0293 69.0491 83.0155C68.9717 83.0017 68.9006 82.9948 68.8357 82.9948C68.5734 82.9948 68.3773 83.0776 68.2476 83.2432C68.1164 83.4047 68.0508 83.6303 68.0508 83.9201C68.0508 84.2237 68.1033 84.4445 68.2082 84.5825C68.3131 84.7205 68.4816 84.7895 68.7136 84.7895C68.8047 84.7895 68.9013 84.7723 69.0035 84.7378C69.1043 84.7033 69.194 84.6584 69.2727 84.6032ZM66.3049 85.4602H65.3067V85.1373C65.1355 85.2753 64.9753 85.3788 64.8262 85.4478C64.6784 85.5127 64.5059 85.5451 64.3084 85.5451C63.9315 85.5451 63.6298 85.4002 63.4034 85.1104C63.1755 84.8178 63.0616 84.4245 63.0616 83.9304C63.0616 83.6682 63.0996 83.435 63.1755 83.2308C63.2529 83.0265 63.3585 82.8513 63.4924 82.705C63.6167 82.567 63.7686 82.46 63.9481 82.3841C64.1275 82.3068 64.307 82.2682 64.4865 82.2682C64.6715 82.2682 64.8234 82.2889 64.9422 82.3303C65.0623 82.3676 65.1845 82.4159 65.3087 82.4752V81.1566H66.307L66.3049 85.4602ZM65.3067 84.6032V83.0776C65.2376 83.05 65.1645 83.0293 65.0871 83.0155C65.0084 83.0017 64.9373 82.9948 64.8738 82.9948C64.6115 82.9948 64.4147 83.0776 64.2836 83.2432C64.151 83.4047 64.0847 83.6303 64.0847 83.9201C64.0847 84.2237 64.1372 84.4445 64.2421 84.5825C64.3485 84.7205 64.5176 84.7895 64.7495 84.7895C64.8393 84.7895 64.9359 84.7723 65.0395 84.7378C65.1389 84.7033 65.2273 84.6584 65.3046 84.6032H65.3067ZM62.3409 85.4602H61.3468V82.3551H62.3409V85.4602ZM62.3699 81.9121H61.3199V81.1566H62.3699V81.9121ZM59.2737 82.6035C59.2737 82.5 59.2516 82.4103 59.2074 82.3344C59.166 82.2627 59.0935 82.2054 58.9899 82.1626C58.9181 82.135 58.8339 82.1185 58.7373 82.1129C58.6434 82.1047 58.5329 82.1005 58.4059 82.1005H58.0207V83.2101H58.3458C58.517 83.2101 58.66 83.2018 58.7745 83.1852C58.8891 83.1687 58.9858 83.1307 59.0645 83.0714C59.1377 83.0134 59.1908 82.9513 59.224 82.8851C59.2585 82.8133 59.2757 82.7195 59.2757 82.6035H59.2737ZM60.9305 85.4602H59.632L58.5074 83.9491H58.0186V85.4602H56.9624V81.3408H58.7435C58.9865 81.3408 59.1957 81.3546 59.371 81.3822C59.5464 81.4098 59.7107 81.4698 59.8639 81.5623C60.0186 81.6562 60.1414 81.7769 60.2326 81.9246C60.3237 82.0695 60.3693 82.253 60.3693 82.4752C60.3693 82.7788 60.2982 83.0272 60.1559 83.2204C60.0151 83.4136 59.8135 83.5723 59.5512 83.6965L60.9305 85.4602ZM106.875 53.7263C106.875 54.074 106.827 54.4135 106.73 54.7447C106.633 55.0732 106.495 55.3492 106.316 55.5727C106.067 55.8764 105.791 56.1061 105.487 56.2621C105.186 56.4166 104.81 56.4939 104.359 56.4939H103.364V59.007H101.77V51.296H104.394C104.787 51.296 105.119 51.3374 105.388 51.4202C105.657 51.503 105.896 51.63 106.104 51.8011C106.353 52.0053 106.542 52.2662 106.672 52.5836C106.806 52.901 106.873 53.2826 106.873 53.7283L106.875 53.7263ZM105.226 53.7759C105.226 53.5579 105.179 53.3716 105.085 53.217C104.989 53.0569 104.878 52.9465 104.754 52.8858C104.588 52.803 104.428 52.7575 104.272 52.7492C104.114 52.7395 103.904 52.7347 103.64 52.7347H103.366V55.0449H103.822C104.094 55.0449 104.317 55.0242 104.491 54.9828C104.668 54.9414 104.816 54.8586 104.934 54.7344C105.038 54.624 105.112 54.4929 105.156 54.3411C105.203 54.1865 105.226 53.9988 105.226 53.778V53.7759ZM100.198 59.009H98.6134V53.8422L97.466 57.1957H96.3684L95.2231 53.8422V59.009H93.7195V51.296H95.5731L96.9649 55.167L98.3525 51.296H100.202L100.198 59.009ZM92.8207 59.009H91.1742L90.7455 57.4503H88.4549L88.0262 59.009H86.4211L88.7034 51.2939H90.5384L92.8207 59.009ZM90.3603 56.0364L89.6002 53.2667L88.8401 56.0344L90.3603 56.0364ZM83.7432 59.1622C83.2834 59.1622 82.8582 59.0767 82.4675 58.9055C82.0809 58.7358 81.7467 58.4839 81.4651 58.15C81.1862 57.816 80.9687 57.3985 80.8127 56.8976C80.6608 56.3966 80.5849 55.817 80.5849 55.1587C80.5849 54.5488 80.6587 53.9954 80.8065 53.4985C80.9542 53.0017 81.1682 52.5739 81.4485 52.2151C81.7163 51.8742 82.0477 51.6107 82.4426 51.4243C82.843 51.2394 83.2779 51.147 83.7474 51.147C84.0069 51.147 84.2403 51.1663 84.4474 51.2049C84.6586 51.2394 84.8519 51.2857 85.0273 51.3436C85.2137 51.4126 85.3821 51.4885 85.5326 51.5713C85.6845 51.6486 85.8157 51.7217 85.9261 51.7907V53.6621H85.7459C85.6686 53.5793 85.5699 53.4813 85.4498 53.3681C85.3338 53.2536 85.2012 53.1411 85.0521 53.0307C84.9003 52.9203 84.7359 52.8272 84.5592 52.7513C84.3797 52.6754 84.1899 52.6374 83.9897 52.6374C83.766 52.6374 83.552 52.6823 83.3476 52.772C83.1474 52.8575 82.9611 53.0024 82.7885 53.2067C82.6255 53.404 82.493 53.6648 82.3908 53.9891C82.2914 54.3135 82.2417 54.7068 82.2417 55.1691C82.2417 55.6521 82.2969 56.0564 82.4074 56.3821C82.5178 56.7078 82.6559 56.9631 82.8216 57.1481C82.9901 57.3413 83.1778 57.4793 83.3849 57.5621C83.592 57.6393 83.7971 57.678 84 57.678C84.1933 57.678 84.3839 57.6421 84.5716 57.5703C84.7622 57.4972 84.9375 57.3985 85.0977 57.2743C85.233 57.1736 85.3587 57.0666 85.4746 56.9535C85.592 56.8389 85.6886 56.7403 85.7646 56.6575H85.9303V58.4998L85.485 58.7482C85.3428 58.8227 85.1943 58.8876 85.0397 58.9428C84.8381 59.0173 84.6483 59.0725 84.4702 59.1084C84.2934 59.1498 84.0504 59.1705 83.7411 59.1705L83.7432 59.1622ZM77.0848 52.7864H75.1525V59.009H73.5578V52.7864H71.6317V51.296H77.0827L77.0848 52.7864ZM71.1512 56.585C71.1512 57.344 70.8923 57.9623 70.3745 58.4398C69.8595 58.9145 69.1595 59.1519 68.2745 59.1519C67.7636 59.1519 67.3163 59.0967 66.9324 58.9863C66.5541 58.8717 66.1986 58.7282 65.8659 58.5557V56.7051H66.0419C66.3705 57.0335 66.7385 57.2861 67.1458 57.4627C67.5558 57.638 67.9493 57.7256 68.3263 57.7256C68.4229 57.7256 68.5499 57.7153 68.7073 57.6945C68.8661 57.6739 68.9952 57.6393 69.0946 57.591C69.2189 57.5289 69.319 57.4517 69.3949 57.3592C69.475 57.2654 69.5151 57.1274 69.5151 56.9452C69.5151 56.7754 69.4571 56.6305 69.3411 56.5105C69.2265 56.3863 69.058 56.2897 68.8357 56.2207C68.6038 56.1517 68.358 56.0896 68.0984 56.0344C67.8403 55.9709 67.5986 55.8922 67.3736 55.7984C66.8517 55.5872 66.4761 55.3023 66.2469 54.9434C66.0191 54.5819 65.9052 54.1334 65.9052 53.5979C65.9052 52.8803 66.1634 52.2952 66.6798 51.8425C67.1975 51.3871 67.8617 51.1594 68.6721 51.1594C69.0794 51.1594 69.4812 51.2091 69.8775 51.3084C70.2751 51.405 70.6203 51.5272 70.913 51.6748V53.4551H70.7411C70.4926 53.2067 70.1868 52.9997 69.8236 52.8341C69.4647 52.6643 69.096 52.5794 68.7177 52.5794C68.5852 52.5794 68.4526 52.5919 68.3201 52.6167C68.1903 52.6374 68.0639 52.6788 67.9411 52.7409C67.8334 52.792 67.7409 52.8713 67.6635 52.979C67.5848 53.0825 67.5455 53.2011 67.5455 53.335C67.5455 53.5393 67.6076 53.6966 67.7319 53.807C67.8561 53.9146 68.0909 54.0133 68.436 54.103L69.0905 54.2748C69.2976 54.33 69.522 54.4059 69.7636 54.5025C70.2372 54.6957 70.5865 54.96 70.8115 55.2954C71.0394 55.6266 71.1533 56.0578 71.1533 56.5891L71.1512 56.585ZM64.7102 56.2165C64.7102 57.1688 64.4769 57.9002 64.0102 58.4108C63.5463 58.9173 62.8614 59.1705 61.9557 59.1705C61.0513 59.1705 60.3665 58.9166 59.9012 58.4087C59.4387 57.9009 59.2074 57.1715 59.2074 56.2207V51.2939H60.8104V56.1047C60.8104 56.6402 60.9001 57.0404 61.0796 57.3054C61.2591 57.5676 61.5511 57.6987 61.9557 57.6987C62.3561 57.6987 62.646 57.5717 62.8255 57.3178C63.0119 57.0653 63.1051 56.6609 63.1051 56.1047V51.296H64.7081L64.7102 56.2165ZM58.0787 55.1608C58.0787 55.8784 57.9475 56.5222 57.6852 57.0922C57.4228 57.658 57.0901 58.0927 56.6869 58.3963C56.3873 58.6254 56.0573 58.7841 55.697 58.8724C55.338 58.9635 54.912 59.009 54.4191 59.009H52.2404V51.296H54.4812C54.9852 51.296 55.4201 51.3484 55.786 51.4533C56.1505 51.5568 56.457 51.7059 56.7056 51.9005C57.1308 52.2248 57.465 52.6629 57.708 53.2149C57.9565 53.7642 58.0807 54.4128 58.0807 55.1608H58.0787ZM56.4301 55.1442C56.4301 54.6336 56.3556 54.1989 56.2064 53.8401C56.0587 53.4772 55.824 53.1942 55.5023 52.9914C55.3394 52.8906 55.1723 52.823 55.0011 52.7885C54.8313 52.7513 54.5758 52.7326 54.2348 52.7326H53.8289V57.5621H54.2327C54.611 57.5621 54.8892 57.5414 55.0674 57.5C55.2441 57.4544 55.4167 57.3751 55.5851 57.2619C55.8751 57.0549 56.0891 56.7789 56.2271 56.4339C56.3611 56.0834 56.428 55.6528 56.428 55.1422L56.4301 55.1442ZM49.0447 53.6538C49.0447 53.4606 49.0137 53.295 48.9515 53.157C48.888 53.019 48.7789 52.91 48.6243 52.8299C48.5138 52.7747 48.3875 52.7423 48.2453 52.7326C48.1017 52.7188 47.9346 52.7119 47.7441 52.7119H47.1642V54.7882H47.6571C47.9112 54.7882 48.1238 54.773 48.295 54.7426C48.4676 54.7109 48.6126 54.6398 48.7299 54.5294C48.8404 54.4232 48.9198 54.3059 48.9681 54.1775C49.0206 54.0464 49.0468 53.8718 49.0468 53.6538H49.0447ZM51.5341 59.007H49.5873L47.9015 56.1772H47.1663V59.0049H45.5798V51.296H48.2515C48.6188 51.296 48.9336 51.3208 49.1959 51.3705C49.4582 51.423 49.7047 51.5354 49.9353 51.7079C50.1672 51.8791 50.3516 52.1026 50.4882 52.3786C50.6263 52.6519 50.6954 52.9969 50.6954 53.4137C50.6954 53.9822 50.589 54.4459 50.3764 54.8048C50.1652 55.1636 49.8635 55.4623 49.4714 55.7011L51.5341 59.007ZM44.6831 59.007H43.0366L42.6058 57.4482H40.3152L39.8865 59.007H38.2773L40.5617 51.2919H42.3966L44.6831 59.007ZM42.2227 56.0323L41.4626 53.2626L40.7004 56.0302L42.2227 56.0323ZM38.0122 52.7823H36.082V59.0049H34.4873V52.7864H32.5612V51.296H38.0143L38.0122 52.7823ZM32.0807 56.5809C32.0807 57.3399 31.8211 57.9581 31.302 58.4356C30.787 58.9104 30.0869 59.1477 29.2019 59.1477C28.6911 59.1477 28.2437 59.0925 27.8599 58.9821C27.4816 58.8676 27.126 58.7241 26.7933 58.5516V56.7009H26.9672C27.2986 57.0294 27.6673 57.2819 28.0732 57.4586C28.4833 57.6338 28.8768 57.7215 29.2537 57.7215C29.3503 57.7215 29.4774 57.7111 29.6348 57.6904C29.7922 57.6697 29.9213 57.6352 30.0221 57.5869C30.1436 57.5248 30.243 57.4475 30.3203 57.3551C30.399 57.2612 30.4383 57.1232 30.4383 56.941C30.4383 56.7713 30.3803 56.6264 30.2644 56.5063C30.1511 56.3821 29.9834 56.2855 29.7611 56.2165C29.5291 56.1475 29.2827 56.0854 29.0217 56.0302C28.7649 55.9667 28.5233 55.8881 28.2969 55.7942C27.7763 55.5831 27.4008 55.2981 27.1702 54.9393C26.9424 54.5777 26.8285 54.1292 26.8285 53.5938C26.8285 52.8761 27.086 52.291 27.601 51.8384C28.1188 51.3829 28.7829 51.1552 29.5933 51.1552C30.0007 51.1552 30.4011 51.2049 30.7946 51.3043C31.195 51.4009 31.5401 51.523 31.8301 51.6707V53.4509H31.6603C31.4117 53.2025 31.1059 52.9955 30.7428 52.8299C30.3838 52.6602 30.0158 52.5753 29.6389 52.5753C29.5064 52.5753 29.3738 52.5877 29.2413 52.6126C29.1101 52.6333 28.9838 52.6747 28.8623 52.7368C28.7546 52.7878 28.6621 52.8672 28.5847 52.9748C28.5074 53.0783 28.4688 53.197 28.4688 53.3309C28.4688 53.5351 28.5309 53.6924 28.6552 53.8028C28.7794 53.9105 29.0141 54.0092 29.3593 54.0989L30.0138 54.2707C30.2236 54.3259 30.4487 54.4018 30.6889 54.4984C31.1611 54.6916 31.5091 54.9559 31.7327 55.2912C31.9606 55.6224 32.0745 56.0537 32.0745 56.585L32.0807 56.5809ZM62.9187 108.953C53.8061 103.757 23.0198 85.0276 22.0195 84.0712C21.336 83.4088 20.4869 81.8852 20.1431 80.6805L19.5135 78.4862H0L2.21189 72.156L4.42171 65.8216L2.21189 59.4934L0 53.1694H12.5299V47.9632C12.5299 43.2021 12.6459 42.637 13.8802 41.3473C14.8598 40.3226 15.8332 39.9335 17.4093 39.9335H19.5839L19.7745 34.2201C19.9298 29.5418 20.168 28.2169 21.1082 26.8838C21.829 25.8633 29.9972 20.5784 43.1381 12.6315C61.8956 1.28965 64.2711 0 66.5017 0C68.7239 0 71.0725 1.25859 89.3558 12.2589C100.56 19.0031 110.294 25.0601 110.978 25.7184C111.667 26.3767 112.51 27.9023 112.858 29.1091L113.486 31.3034H132.999L130.789 37.6316L128.58 43.9597L130.791 50.29L133.003 56.6202H120.473V61.8264C120.473 66.5875 120.355 67.1526 119.119 68.4444C118.139 69.467 117.168 69.8561 115.592 69.8561H113.417L113.225 75.5695C113.069 80.254 112.831 81.5789 111.891 82.9078C110.358 85.0814 69.7035 109.601 67.0526 109.953C65.7416 110.127 64.4161 109.808 62.9208 108.953H62.9187ZM88.3513 95.7049C99.504 89.029 109.186 82.9285 109.87 82.1461C110.971 80.8833 111.108 80.1215 111.108 75.29V69.8541H21.8911V75.2569C21.8911 79.6164 22.0837 80.9082 22.8893 81.9494C24.542 84.0816 64.2939 107.734 66.3194 107.79C67.6325 107.825 73.1042 104.824 88.3493 95.7008L88.3513 95.7049ZM47.7752 88.2734C47.7752 87.9008 54.1996 87.6938 65.9487 87.6938C77.6978 87.6938 84.1222 87.9008 84.1222 88.2734C84.1222 88.6419 77.6978 88.8468 65.9487 88.8468C54.1996 88.8468 47.7752 88.6398 47.7752 88.2714V88.2734ZM47.7752 78.4883C47.7752 78.1157 54.1996 77.9128 65.9487 77.9128C77.6978 77.9128 84.1222 78.1157 84.1222 78.4883C84.1222 78.8609 77.6978 79.0637 65.9487 79.0637C54.1996 79.0637 47.7752 78.8567 47.7752 78.4883ZM19.6916 73.0192V69.852H17.459C15.8291 69.852 14.8702 69.4794 13.8802 68.4444C12.6252 67.1299 12.5299 66.6186 12.5299 61.2488V55.4672H7.84931C5.27291 55.4672 3.16872 55.55 3.16872 55.6473C3.16872 55.7466 3.89359 58.0775 4.78414 60.8265L6.39957 65.8257L4.78414 70.8291C3.89359 73.5781 3.16872 75.909 3.16872 76.0083C3.16872 76.1036 6.8842 76.1843 11.4281 76.1843H19.6916V73.0192ZM117.988 54.8979V42.519H15.0048L14.8557 54.3017C14.7729 60.781 14.8288 66.4157 14.98 66.8214C15.1954 67.4155 25.2421 67.5315 66.6197 67.4114L117.99 67.2665L117.988 54.8979ZM129.828 54.1403C129.828 54.043 129.099 51.7121 128.213 48.961L126.593 43.9618L128.209 38.9626C129.099 36.2136 129.824 33.8827 129.824 33.7833C129.824 33.684 126.109 33.6032 121.567 33.6032H113.308V39.9335H115.536C117.166 39.9335 118.125 40.3144 119.115 41.3494C120.37 42.6597 120.467 43.171 120.467 48.5428V54.3183H125.148C127.72 54.3183 129.828 54.2396 129.828 54.1403ZM111.102 34.4996C111.102 29.6701 110.963 28.9042 109.863 27.6332C107.927 25.3872 68.3553 1.94999 66.5099 1.94999C64.6771 1.94999 25.0888 25.3955 23.1296 27.6394C22.0319 28.9021 21.8911 29.6639 21.8911 34.4975V39.9314H111.108L111.102 34.4996ZM46.7024 29.8088C47.7482 28.6765 50.043 26.4346 51.8054 24.8303L55.0073 21.9116L56.1961 23.1577L57.3869 24.3998L61.8149 19.7939L66.2469 15.1859L70.6169 19.7815L74.9868 24.3728L76.2294 23.1515L77.4721 21.9302L82.4488 26.6789C85.1888 29.2872 87.4276 31.527 87.4276 31.6512C87.4276 31.7754 77.8386 31.8789 66.1164 31.8789H44.8053L46.7024 29.8088ZM57.0846 28.4219C57.8674 28.4219 57.8654 27.4552 57.0804 26.9521C56.7491 26.7327 56.1112 25.6439 55.6659 24.5302L54.854 22.5015L51.5942 25.8757C48.9142 28.6454 48.4876 29.3327 49.2042 29.7529C49.6805 30.0324 50.9439 30.0903 52.0084 29.8813C53.4913 29.5915 53.8454 29.6743 53.5161 30.227C53.28 30.6265 53.8516 30.3843 54.7857 29.6888C55.7218 28.9932 56.7594 28.426 57.0908 28.426L57.0846 28.4219ZM80.8189 28.0182C80.8189 26.7224 78.4848 23.8201 77.4431 23.8201C75.6992 23.8201 75.7096 25.0415 77.4721 26.9397C79.2739 28.8856 80.8189 29.3824 80.8189 28.0161V28.0182ZM62.6019 25.2816C63.4572 24.82 64.3001 24.5881 64.472 24.7682C64.6439 24.9504 65.5179 24.5509 66.4188 23.8822C67.3135 23.2157 68.318 22.6692 68.6494 22.6692C69.5151 22.6692 69.4032 22.1869 68.1523 20.5267C67.5455 19.7194 67.0505 18.7257 67.0505 18.3117C67.0505 16.5936 65.9632 17.1608 62.8773 20.477C61.0486 22.4477 60.1021 23.8098 60.7172 23.5821C61.6015 23.2612 61.6823 23.3233 61.1314 23.905C60.4397 24.6337 60.1787 26.1262 60.7441 26.1262C60.9098 26.1262 61.7465 25.7453 62.6019 25.2837V25.2816Z" fill="#2B2B2B"/>
</svg>
